<svg class="decoration-icon2" xmlns="http://www.w3.org/2000/svg" xmlns:xlink="http://www.w3.org/1999/xlink" height="300px" width="300px" fill="#000000" version="1.1" x="0px" y="0px" viewBox="7.5 7.5 50 50" enable-background="new 7.5 7.5 50 50" xml:space="preserve"><path d="M37.615,16.385h8.395c0.276,0,0.5-0.224,0.5-0.5V8.5c0-0.276-0.224-0.5-0.5-0.5H28.221c-0.276,0-0.5,0.224-0.5,0.5v7.385  c0,0.276,0.224,0.5,0.5,0.5h8.395v3.363H18.99c-0.276,0-0.5,0.224-0.5,0.5v31.805c0,0.276,0.224,0.5,0.5,0.5h13.178V56.5  c0,0.276,0.224,0.5,0.5,0.5h8.895c0.276,0,0.5-0.224,0.5-0.5v-8.896c0-0.276-0.224-0.5-0.5-0.5h-3.947v-9.149l8.69-6.395  c0.027-0.02,0.043-0.048,0.065-0.072c0.013-0.014,0.03-0.02,0.041-0.035c0.005-0.007,0.006-0.015,0.01-0.022  c0.021-0.03,0.032-0.063,0.045-0.096c0.011-0.028,0.024-0.055,0.03-0.084c0.006-0.031,0.004-0.063,0.004-0.095  s0.002-0.063-0.004-0.095c-0.006-0.029-0.02-0.056-0.03-0.084c-0.013-0.033-0.024-0.066-0.045-0.096  c-0.004-0.007-0.005-0.015-0.01-0.022c-0.016-0.021-0.037-0.032-0.055-0.05c-0.019-0.019-0.03-0.041-0.052-0.057l-8.69-6.395V16.385  z M28.721,9H45.51v6.385H28.721V9z M37.115,37.083l-8.051-5.926l8.051-5.925l8.051,5.925L37.115,37.083z M41.063,56h-7.895v-7.896  h7.895V56z M32.668,47.104c-0.276,0-0.5,0.224-0.5,0.5v3.948H19.49V20.748h17.125v3.611l-8.691,6.395  c-0.021,0.016-0.033,0.038-0.051,0.057c-0.018,0.018-0.04,0.029-0.055,0.05c-0.005,0.007-0.006,0.015-0.01,0.022  c-0.02,0.03-0.031,0.062-0.044,0.095c-0.011,0.028-0.024,0.055-0.03,0.085c-0.006,0.031-0.004,0.063-0.004,0.095  s-0.002,0.063,0.004,0.095c0.006,0.03,0.019,0.057,0.03,0.085c0.013,0.033,0.024,0.065,0.044,0.095  c0.004,0.007,0.005,0.015,0.01,0.022c0.011,0.015,0.029,0.021,0.042,0.035c0.021,0.024,0.038,0.052,0.065,0.072l8.691,6.395v9.149  H32.668z"/></svg>